<?xml version="1.0" encoding="utf-8"?>
<!-- Generator: Adobe Illustrator 26.1.0, SVG Export Plug-In . SVG Version: 6.00 Build 0)  -->
<svg version="1.1" id="Layer_1" xmlns="http://www.w3.org/2000/svg" xmlns:xlink="http://www.w3.org/1999/xlink" x="0px" y="0px"
	 viewBox="0 0 15 13" style="enable-background:new 0 0 15 13;" xml:space="preserve">
<style type="text/css">
	.st0{fill:#545454;}
</style>
<path class="st0" d="M0.14,0.77l0.9,0.8C0.39,2.22,0,3.08,0,4.05c0,2.54,2.55,4.58,6.41,7.72l1.09,0.87l1.09-0.87
	c0.74-0.6,1.44-1.17,2.07-1.7L13.99,13l0.87-0.77L1.02,0L0.14,0.77z M15,4.04c0-2.07-1.8-3.68-4.12-3.68c-1.31,0-2.55,0.53-3.37,1.4
	c-0.83-0.87-2.06-1.4-3.37-1.4c-0.3,0-0.59,0.03-0.88,0.08l9.15,8.08C14.04,6.98,15,5.61,15,4.04z"/>
</svg>
