<svg version="1.1" id="Layer_1" xmlns="http://www.w3.org/2000/svg" xmlns:xlink="http://www.w3.org/1999/xlink" x="0px" y="0px"
	 viewBox="0 0 45 30" style="enable-background:new 0 0 45 30;" xml:space="preserve">
<style type="text/css">
	.st0{fill:#FF0008;}
	.st1{fill:#FFFFFF;}
</style>
<g>
	<path class="st0" d="M44.57,25.41c0,2.32-1.89,4.05-4.2,4.2C34.51,30,28.58,30,22.68,30c-6,0-11.91,0-18.02-0.39
		c-0.28-0.02-1.77-0.03-2.97-1.23c-0.76-0.76-1.11-1.82-1.23-2.97C0.1,22.07,0.1,18.44,0.1,15c0-3.51,0-6.77,0.36-10.44
		c0.03-0.28,0.03-1.77,1.23-2.97C2.45,0.83,3.5,0.42,4.66,0.36C10.72,0,16.07,0,21.8,0c6.17,0,12.26,0,18.57,0.36
		c0.28,0.02,1.77,0.03,2.97,1.23c0.76,0.76,1.11,1.81,1.23,2.97c0.33,3.33,0.33,6.94,0.33,10.43C44.9,18.45,44.9,22.07,44.57,25.41z
		"/>
	<polygon class="st1" points="17.76,7.89 17.76,14.98 17.76,22.07 31.95,14.98 	"/>
</g>

</svg>
