<svg version="1.1" id="Layer_1" xmlns="http://www.w3.org/2000/svg" xmlns:xlink="http://www.w3.org/1999/xlink" x="0px" y="0px"
	 viewBox="0 0 71 24" style="enable-background:new 0 0 71 24;" xml:space="preserve">

	<g>
		<path fill="#FFFFFF" d="M14.72,0.31h-3.2c-0.38,0-0.71,0.26-0.8,0.62L7.82,12.1L4.98,0.94c-0.09-0.37-0.42-0.63-0.8-0.63H0.92
			c-0.46,0-0.83,0.37-0.83,0.83v21.33c0,0.46,0.37,0.83,0.83,0.83h2.4c0.46,0,0.83-0.37,0.83-0.83v-9.28l2.39,9.48
			c0.09,0.37,0.42,0.63,0.8,0.63H8.3c0.38,0,0.71-0.26,0.8-0.63l2.43-9.54v9.33c0,0.46,0.37,0.83,0.83,0.83h2.37
			c0.46,0,0.83-0.37,0.83-0.83V1.14C15.55,0.69,15.18,0.31,14.72,0.31z"/>
		<path fill="#FFFFFF" d="M27.26,6.9L27.26,6.9c-0.16-0.23-0.41-0.36-0.69-0.36h-1.81c-0.35,0-0.67,0.22-0.78,0.56l-1.63,4.68
			l-1.6-4.68c-0.11-0.34-0.43-0.56-0.78-0.56h-1.86c-0.28,0-0.53,0.14-0.68,0.36c-0.16,0.23-0.19,0.51-0.09,0.77l3.34,8.55v6.25
			c0,0.46,0.37,0.83,0.83,0.83h1.7c0.46,0,0.83-0.37,0.83-0.83v-6.25l3.32-8.55C27.44,7.41,27.41,7.12,27.26,6.9z"/>
		<path fill="#FFFFFF" d="M35.74,0.31h-9.15c-0.46,0-0.83,0.37-0.83,0.83v2.14c0,0.46,0.37,0.83,0.83,0.83h2.53v18.36
			c0,0.46,0.37,0.83,0.83,0.83h2.43c0.46,0,0.83-0.37,0.83-0.83V4.11h2.53c0.46,0,0.83-0.37,0.83-0.83V1.14
			C36.57,0.69,36.2,0.31,35.74,0.31z"/>
		<path fill="#FFFFFF" d="M44.28,6.2H42.1c-0.46,0-0.83,0.37-0.83,0.83v11.26c-0.21,0.5-0.5,0.94-0.87,1.31
			c-0.34,0.33-0.65,0.48-0.99,0.48c-0.27,0-0.64,0-0.64-1.15V7.03c0-0.46-0.37-0.83-0.83-0.83h-2.18c-0.46,0-0.83,0.37-0.83,0.83
			V19.5c0,1.39,0.28,2.4,0.86,3.09c0.61,0.73,1.56,1.1,2.84,1.1c0.91,0,1.75-0.29,2.5-0.88c0.05-0.04,0.1-0.08,0.15-0.12
			c0.1,0.35,0.42,0.61,0.8,0.61h2.18c0.46,0,0.83-0.37,0.83-0.83V7.03C45.11,6.57,44.74,6.2,44.28,6.2z"/>
		<path fill="#FFFFFF" d="M56.67,8.51c-0.84-1.76-2.19-2.7-3.91-2.7c-0.71,0-1.41,0.26-2.08,0.77V1.14c0-0.46-0.37-0.83-0.83-0.83
			h-2.18c-0.46,0-0.83,0.37-0.83,0.83v21.33c0,0.46,0.37,0.83,0.83,0.83h2.18c0.33,0,0.62-0.19,0.75-0.48
			c0.01,0.01,0.02,0.01,0.02,0.02c0.69,0.56,1.41,0.84,2.14,0.84c1.72,0,3.08-0.92,3.91-2.66c0.76-1.57,1.14-3.67,1.14-6.26
			C57.81,12.2,57.43,10.1,56.67,8.51z M53.85,14.77c0,3.43-0.58,5.31-1.63,5.31c-0.24,0-0.5-0.16-0.79-0.47
			c-0.34-0.38-0.59-0.84-0.75-1.37v-6.9c0.16-0.54,0.41-1.01,0.76-1.41c0.29-0.33,0.54-0.49,0.78-0.49
			C53.27,9.42,53.85,11.32,53.85,14.77z"/>
		<path fill="#FFFFFF" d="M69.65,8.48L69.65,8.48c-0.9-1.75-2.41-2.67-4.35-2.67c-1.94,0-3.42,0.9-4.4,2.68
			c-0.9,1.62-1.35,3.72-1.35,6.24c0,2.58,0.5,4.7,1.48,6.31c1.06,1.75,2.65,2.64,4.72,2.64c1.89,0,3.48-0.98,4.73-2.91
			c0.22-0.35,0.16-0.8-0.15-1.07l-1.31-1.15c-0.18-0.16-0.43-0.24-0.68-0.2c-0.25,0.04-0.46,0.19-0.59,0.41
			c-0.55,0.97-1.15,1.44-1.84,1.44c-0.76,0-1.32-0.35-1.74-1.09c-0.41-0.71-0.65-1.65-0.73-2.82h6.63c0.46,0,0.83-0.37,0.83-0.83
			V14.7C70.89,12.17,70.47,10.08,69.65,8.48z M64.29,9.88c0.35-0.51,0.69-0.58,0.94-0.58c0.43,0,0.92,0.12,1.27,1.05
			c0.29,0.76,0.47,1.65,0.53,2.66h-3.6c0.03-0.5,0.08-0.97,0.15-1.41C63.69,10.98,63.93,10.4,64.29,9.88z"/>
	</g>


</svg>
