<?xml version="1.0" encoding="utf-8"?>
<!-- Generator: Adobe Illustrator 26.1.0, SVG Export Plug-In . SVG Version: 6.00 Build 0)  -->
<svg version="1.1" id="Layer_1" xmlns="http://www.w3.org/2000/svg" xmlns:xlink="http://www.w3.org/1999/xlink" x="0px" y="0px"
	 viewBox="0 0 20 13" style="enable-background:new 0 0 20 13;" xml:space="preserve">
<style type="text/css">
	.st0{fill:#545454;}
</style>
<path class="st0" d="M10,0C5.46,0,1.59,2.69,0,6.5C1.59,10.31,5.46,13,10,13c4.54,0,8.41-2.69,10-6.5C18.41,2.69,14.54,0,10,0z
	 M10,10.83c-2.5,0-4.54-1.95-4.54-4.33S7.5,2.17,10,2.17s4.54,1.95,4.54,4.33S12.5,10.83,10,10.83z M10,3.9
	c-1.5,0-2.73,1.17-2.73,2.6S8.5,9.1,10,9.1s2.73-1.17,2.73-2.6S11.5,3.9,10,3.9z"/>
</svg>
