<?xml version="1.0" encoding="utf-8"?>
<!-- Generator: Adobe Illustrator 26.1.0, SVG Export Plug-In . SVG Version: 6.00 Build 0)  -->
<svg version="1.1" id="Layer_1" xmlns="http://www.w3.org/2000/svg" xmlns:xlink="http://www.w3.org/1999/xlink" x="0px" y="0px"
	 viewBox="0 0 121.31 30" style="enable-background:new 0 0 121.31 30;" xml:space="preserve">
<style type="text/css">
	.st0{fill:#FF0008;}
	.st1{fill:#FFFFFF;}
	.st2{fill:#D80000;}
</style>
<g>
	<path class="st0" d="M45.24,25.69c0,2.38-1.93,4.31-4.31,4.31H4.31C1.93,30,0,28.07,0,25.69V4.31C0,1.93,1.93,0,4.31,0h36.62
		c2.38,0,4.31,1.93,4.31,4.31V25.69z"/>
	<polygon class="st1" points="16.7,6.68 16.7,15 16.7,23.32 33.34,15 	"/>
</g>
<g>
	<g>
		<path class="st1" d="M62.07,2.68H58.7c-0.4,0-0.75,0.27-0.85,0.66l-3.06,11.78l-3-11.78c-0.1-0.39-0.45-0.66-0.85-0.66H47.5
			c-0.48,0-0.88,0.39-0.88,0.88v22.5c0,0.48,0.39,0.88,0.88,0.88h2.53c0.48,0,0.88-0.39,0.88-0.88v-9.79l2.52,10
			c0.1,0.39,0.45,0.66,0.85,0.66h1.01c0.4,0,0.75-0.27,0.85-0.66L58.7,16.2v9.84c0,0.48,0.39,0.88,0.88,0.88h2.5
			c0.48,0,0.88-0.39,0.88-0.88V3.55C62.95,3.07,62.56,2.68,62.07,2.68z"/>
		<path class="st1" d="M75.29,9.62L75.29,9.62c-0.17-0.24-0.44-0.38-0.72-0.38h-1.91c-0.37,0-0.7,0.24-0.83,0.59l-1.72,4.94
			l-1.69-4.93c-0.12-0.35-0.45-0.59-0.83-0.59h-1.96c-0.29,0-0.56,0.14-0.72,0.38c-0.16,0.24-0.2,0.54-0.09,0.81l3.52,9.02v6.6
			c0,0.48,0.39,0.88,0.88,0.88h1.79c0.48,0,0.88-0.39,0.88-0.88v-6.6l3.5-9.02C75.49,10.16,75.45,9.86,75.29,9.62z"/>
		<path class="st1" d="M84.24,2.68h-9.65c-0.48,0-0.88,0.39-0.88,0.88v2.26c0,0.48,0.39,0.88,0.88,0.88h2.67v19.36
			c0,0.48,0.39,0.88,0.88,0.88h2.56c0.48,0,0.88-0.39,0.88-0.88V6.68h2.67c0.48,0,0.88-0.39,0.88-0.88V3.55
			C85.11,3.07,84.72,2.68,84.24,2.68z"/>
		<path class="st1" d="M93.24,8.88h-2.29c-0.48,0-0.88,0.39-0.88,0.88v11.87c-0.22,0.53-0.53,1-0.92,1.38
			c-0.36,0.35-0.69,0.51-1.04,0.51c-0.29,0-0.68,0-0.68-1.22V9.76c0-0.48-0.39-0.88-0.88-0.88h-2.29c-0.48,0-0.88,0.39-0.88,0.88
			v13.15c0,1.46,0.3,2.53,0.91,3.26c0.64,0.77,1.65,1.16,3,1.16c0.96,0,1.85-0.31,2.64-0.92c0.05-0.04,0.11-0.08,0.16-0.12
			c0.1,0.37,0.44,0.64,0.84,0.64h2.29c0.48,0,0.88-0.39,0.88-0.88V9.76C94.12,9.27,93.73,8.88,93.24,8.88z"/>
		<path class="st1" d="M106.31,11.32c-0.88-1.86-2.31-2.84-4.13-2.84c-0.75,0-1.49,0.27-2.19,0.81V3.55c0-0.48-0.39-0.88-0.88-0.88
			h-2.29c-0.48,0-0.88,0.39-0.88,0.88v22.5c0,0.48,0.39,0.88,0.88,0.88h2.29c0.35,0,0.65-0.21,0.79-0.5
			c0.01,0.01,0.02,0.01,0.02,0.02c0.73,0.59,1.49,0.88,2.25,0.88c1.82,0,3.24-0.97,4.13-2.81c0.8-1.65,1.2-3.87,1.2-6.6
			C107.51,15.21,107.11,12.99,106.31,11.32z M103.33,17.92c0,3.61-0.61,5.6-1.72,5.6c-0.26,0-0.53-0.16-0.83-0.5
			c-0.36-0.4-0.62-0.89-0.79-1.44v-7.28c0.17-0.56,0.44-1.07,0.8-1.49c0.3-0.35,0.57-0.52,0.82-0.52
			C102.72,12.28,103.33,14.28,103.33,17.92z"/>
		<path class="st1" d="M120,11.29L120,11.29c-0.95-1.84-2.54-2.82-4.59-2.82c-2.04,0-3.61,0.95-4.64,2.83
			c-0.94,1.71-1.42,3.92-1.42,6.58c0,2.72,0.52,4.96,1.56,6.66c1.12,1.85,2.79,2.78,4.98,2.78c2,0,3.67-1.03,4.99-3.07
			c0.24-0.37,0.17-0.84-0.16-1.13l-1.38-1.21c-0.19-0.17-0.45-0.25-0.72-0.21c-0.26,0.04-0.48,0.2-0.62,0.43
			c-0.58,1.02-1.21,1.51-1.94,1.51c-0.8,0-1.39-0.36-1.84-1.15c-0.43-0.75-0.68-1.74-0.76-2.97h6.99c0.48,0,0.88-0.39,0.88-0.88
			v-0.81C121.31,15.18,120.87,12.98,120,11.29z M114.34,12.76c0.37-0.54,0.73-0.61,1-0.61c0.45,0,0.97,0.13,1.34,1.11
			c0.31,0.8,0.49,1.74,0.56,2.81h-3.8c0.03-0.53,0.08-1.03,0.16-1.49C113.72,13.93,113.96,13.32,114.34,12.76z"/>
	</g>
</g>
</svg>
